<svg xmlns="http://www.w3.org/2000/svg" version="1.1" xmlns:xlink="http://www.w3.org/1999/xlink" width="1000" height="1000"><g clip-path="url(#SvgjsClipPath1126)"><rect width="1000" height="1000" fill="#ffffff"></rect><g transform="matrix(3.225806451612903,0,0,3.225806451612903,50,50)"><svg xmlns="http://www.w3.org/2000/svg" version="1.1" xmlns:xlink="http://www.w3.org/1999/xlink" width="279" height="279"><svg width="279" height="279" viewBox="0 0 279 279" fill="none" xmlns="http://www.w3.org/2000/svg">
<path d="M176.025 144.268C180.113 150.806 192.918 163.61 212.536 163.61C223.692 162.954 232.197 159.779 238.617 155.261L238.684 257.754C238.684 264.597 233.135 270.145 226.29 270.145H205.782C198.938 270.145 193.39 264.597 193.39 257.754V208.193C193.39 201.35 184.085 195.802 177.24 195.802C170.396 195.802 161.092 201.35 161.092 208.193V257.754C161.092 264.597 155.543 270.145 148.698 270.145H52.7852C45.9406 270.145 40.3916 264.597 40.3916 257.754L40.332 155.075C47.7801 160.499 56.9136 163.5 66.4912 163.61C85.455 163.827 98.5515 151.533 102.729 145.358C106.635 151.078 119.351 162.629 138.969 163.065C158.587 163.501 171.847 150.715 176.025 144.268ZM91.5459 195.627C88.0536 195.627 79.0127 197.807 78.4678 208.705C79.0129 219.331 88.055 221.784 91.5459 221.784H110.891C114.38 221.783 123.151 218.241 123.151 208.705C123.151 199.17 114.38 195.628 110.891 195.627H91.5459ZM66.4893 13.7592C89.3765 12.1245 173.022 12.1245 212.528 13.7592C224.244 13.7593 238.467 21.6063 245.224 43.1849C250.673 64.9817 255.668 90.3206 256.667 100.402C257.394 115.115 249.583 145.085 212.528 147.265C192.911 147.265 180.106 134.459 176.019 127.92C171.841 134.368 158.581 147.156 138.964 146.72C119.347 146.284 106.632 134.732 102.727 129.01C98.5489 135.186 85.4524 147.483 66.4893 147.265C42.7852 146.993 21.8057 129.01 22.3506 100.402C24.5303 81.8744 27.3177 63.1118 33.7939 43.1849C40.878 21.6062 54.501 13.7592 66.4893 13.7592Z" fill="#242424"></path>
</svg></svg></g></g><defs><clipPath id="SvgjsClipPath1126"><rect width="1000" height="1000" x="0" y="0" rx="150" ry="150"></rect></clipPath></defs></svg>